<mxfile host="65bd71144e">
    <diagram id="IUcw4Q5ppLAFFK1J2Hf2" name="第 1 页">
        <mxGraphModel dx="1165" dy="676" grid="1" gridSize="10" guides="1" tooltips="1" connect="1" arrows="1" fold="1" page="1" pageScale="1" pageWidth="827" pageHeight="1169" math="0" shadow="0">
            <root>
                <mxCell id="0"/>
                <mxCell id="1" parent="0"/>
                <mxCell id="9" value="" style="group" vertex="1" connectable="0" parent="1">
                    <mxGeometry x="560" y="170" width="200" height="80" as="geometry"/>
                </mxCell>
                <mxCell id="2" value="GameManager" style="swimlane;fontSize=14;" vertex="1" parent="9">
                    <mxGeometry width="200" height="80" as="geometry"/>
                </mxCell>
                <mxCell id="5" value="- Players: GameObject [ ]" style="text;html=1;align=left;verticalAlign=middle;resizable=0;points=[];autosize=1;strokeColor=none;fontSize=14;" vertex="1" parent="2">
                    <mxGeometry x="11.11111111111111" y="50" width="170" height="20" as="geometry"/>
                </mxCell>
                <mxCell id="3" value="- PlayerCnt: int" style="text;html=1;align=left;verticalAlign=middle;resizable=0;points=[];autosize=1;strokeColor=none;fontSize=14;" vertex="1" parent="9">
                    <mxGeometry x="11.11111111111111" y="30" width="110" height="20" as="geometry"/>
                </mxCell>
                <mxCell id="17" value="" style="group" vertex="1" connectable="0" parent="1">
                    <mxGeometry x="740" y="310" width="200" height="140" as="geometry"/>
                </mxCell>
                <mxCell id="11" value="Player" style="swimlane;fontSize=14;" vertex="1" parent="17">
                    <mxGeometry width="200" height="140" as="geometry"/>
                </mxCell>
                <mxCell id="12" value="- Camp: enum" style="text;html=1;align=left;verticalAlign=middle;resizable=0;points=[];autosize=1;strokeColor=none;fontSize=14;" vertex="1" parent="11">
                    <mxGeometry x="10.526315789473683" y="50" width="100" height="20" as="geometry"/>
                </mxCell>
                <mxCell id="14" value="- Gold: int" style="text;html=1;align=left;verticalAlign=middle;resizable=0;points=[];autosize=1;strokeColor=none;fontSize=14;" vertex="1" parent="11">
                    <mxGeometry x="10.526315789473683" y="70" width="80" height="20" as="geometry"/>
                </mxCell>
                <mxCell id="15" value="- Buildings: GameObject [ ]" style="text;html=1;align=left;verticalAlign=middle;resizable=0;points=[];autosize=1;strokeColor=none;fontSize=14;" vertex="1" parent="11">
                    <mxGeometry x="10.526315789473683" y="90" width="180" height="20" as="geometry"/>
                </mxCell>
                <mxCell id="16" value="- Units: GameObject [ ]" style="text;html=1;align=left;verticalAlign=middle;resizable=0;points=[];autosize=1;strokeColor=none;fontSize=14;" vertex="1" parent="11">
                    <mxGeometry x="10.526315789473683" y="110" width="160" height="20" as="geometry"/>
                </mxCell>
                <mxCell id="13" value="- PlayerID: int" style="text;html=1;align=left;verticalAlign=middle;resizable=0;points=[];autosize=1;strokeColor=none;fontSize=14;" vertex="1" parent="17">
                    <mxGeometry x="10.526315789473683" y="30" width="100" height="20" as="geometry"/>
                </mxCell>
                <mxCell id="18" value="" style="group" vertex="1" connectable="0" parent="1">
                    <mxGeometry x="800" y="190" width="200" height="60" as="geometry"/>
                </mxCell>
                <mxCell id="19" value="GameSettings" style="swimlane;fontSize=14;" vertex="1" parent="18">
                    <mxGeometry width="199.41690962099128" height="60" as="geometry"/>
                </mxCell>
                <mxCell id="21" value="+ Prefabs: GameObject [ ]" style="text;html=1;align=left;verticalAlign=middle;resizable=0;points=[];autosize=1;strokeColor=none;fontSize=14;" vertex="1" parent="19">
                    <mxGeometry x="9.711471189411352" y="30" width="180" height="20" as="geometry"/>
                </mxCell>
                <mxCell id="24" value="" style="group" vertex="1" connectable="0" parent="1">
                    <mxGeometry x="440.01" y="404" width="200.00580174927114" height="60" as="geometry"/>
                </mxCell>
                <mxCell id="25" value="CameraController" style="swimlane;fontSize=14;" vertex="1" parent="24">
                    <mxGeometry width="200" height="60" as="geometry"/>
                </mxCell>
                <mxCell id="26" value="- MainCamera: GameObject" style="text;html=1;align=left;verticalAlign=middle;resizable=0;points=[];autosize=1;strokeColor=none;fontSize=14;" vertex="1" parent="24">
                    <mxGeometry x="10.005801749271136" y="30" width="190" height="20" as="geometry"/>
                </mxCell>
                <mxCell id="30" value="" style="group" vertex="1" connectable="0" parent="1">
                    <mxGeometry x="1020" y="280" width="221" height="210" as="geometry"/>
                </mxCell>
                <mxCell id="40" value="" style="group" vertex="1" connectable="0" parent="30">
                    <mxGeometry y="-40" width="200" height="80" as="geometry"/>
                </mxCell>
                <mxCell id="31" value="Building" style="swimlane;fontSize=14;" vertex="1" parent="40">
                    <mxGeometry width="200" height="80" as="geometry"/>
                </mxCell>
                <mxCell id="32" value="- Tag: String" style="text;html=1;align=left;verticalAlign=middle;resizable=0;points=[];autosize=1;strokeColor=none;fontSize=14;" vertex="1" parent="31">
                    <mxGeometry x="10.526315789473683" y="50" width="90" height="20" as="geometry"/>
                </mxCell>
                <mxCell id="36" value="- Name: String" style="text;html=1;align=left;verticalAlign=middle;resizable=0;points=[];autosize=1;strokeColor=none;fontSize=14;" vertex="1" parent="40">
                    <mxGeometry x="10.526315789473683" y="30" width="110" height="20" as="geometry"/>
                </mxCell>
                <mxCell id="92" value="HealthBar" style="swimlane;fontSize=14;" vertex="1" parent="30">
                    <mxGeometry x="21" y="130" width="200" height="60" as="geometry"/>
                </mxCell>
                <mxCell id="94" value="- Color: Vector3" style="text;html=1;align=left;verticalAlign=middle;resizable=0;points=[];autosize=1;strokeColor=none;fontSize=14;" vertex="1" parent="92">
                    <mxGeometry x="9.99631578947367" y="30" width="110" height="20" as="geometry"/>
                </mxCell>
                <mxCell id="104" value="" style="endArrow=diamondThin;endFill=0;endSize=24;html=1;fontSize=14;exitX=0.5;exitY=0;exitDx=0;exitDy=0;entryX=0.5;entryY=1;entryDx=0;entryDy=0;" edge="1" parent="30" source="92" target="31">
                    <mxGeometry width="160" relative="1" as="geometry">
                        <mxPoint x="330" y="150" as="sourcePoint"/>
                        <mxPoint x="231" y="170" as="targetPoint"/>
                    </mxGeometry>
                </mxCell>
                <mxCell id="105" value="1" style="text;html=1;strokeColor=none;fillColor=none;align=center;verticalAlign=middle;whiteSpace=wrap;rounded=0;fontSize=14;" vertex="1" parent="30">
                    <mxGeometry x="101" y="40" width="40" height="20" as="geometry"/>
                </mxCell>
                <mxCell id="106" value="1" style="text;html=1;strokeColor=none;fillColor=none;align=center;verticalAlign=middle;whiteSpace=wrap;rounded=0;fontSize=14;" vertex="1" parent="30">
                    <mxGeometry x="110" y="110" width="40" height="20" as="geometry"/>
                </mxCell>
                <mxCell id="98" value="1" style="text;html=1;strokeColor=none;fillColor=none;align=center;verticalAlign=middle;whiteSpace=wrap;rounded=0;fontSize=14;" vertex="1" parent="30">
                    <mxGeometry x="181" y="190" width="40" height="20" as="geometry"/>
                </mxCell>
                <mxCell id="51" value="" style="group" vertex="1" connectable="0" parent="1">
                    <mxGeometry x="600" y="480" width="200" height="190" as="geometry"/>
                </mxCell>
                <mxCell id="42" value="UnitManager" style="swimlane;fontSize=14;" vertex="1" parent="51">
                    <mxGeometry width="200" height="160" as="geometry"/>
                </mxCell>
                <mxCell id="43" value="- Health: int" style="text;html=1;align=left;verticalAlign=middle;resizable=0;points=[];autosize=1;strokeColor=none;fontSize=14;" vertex="1" parent="42">
                    <mxGeometry x="10.526315789473683" y="50" width="90" height="20" as="geometry"/>
                </mxCell>
                <mxCell id="44" value="- MaxHealth: int" style="text;html=1;align=left;verticalAlign=middle;resizable=0;points=[];autosize=1;strokeColor=none;fontSize=14;" vertex="1" parent="42">
                    <mxGeometry x="10.526315789473683" y="70" width="110" height="20" as="geometry"/>
                </mxCell>
                <mxCell id="45" value="- Speed: float" style="text;html=1;align=left;verticalAlign=middle;resizable=0;points=[];autosize=1;strokeColor=none;fontSize=14;" vertex="1" parent="42">
                    <mxGeometry x="10.526315789473683" y="90" width="100" height="20" as="geometry"/>
                </mxCell>
                <mxCell id="46" value="- AttackDamage: int" style="text;html=1;align=left;verticalAlign=middle;resizable=0;points=[];autosize=1;strokeColor=none;fontSize=14;" vertex="1" parent="42">
                    <mxGeometry x="10.526315789473683" y="110" width="140" height="20" as="geometry"/>
                </mxCell>
                <mxCell id="48" value="- AttackSpeed: float" style="text;html=1;align=left;verticalAlign=middle;resizable=0;points=[];autosize=1;strokeColor=none;fontSize=14;" vertex="1" parent="42">
                    <mxGeometry x="10.526315789473685" y="130" width="140" height="20" as="geometry"/>
                </mxCell>
                <mxCell id="47" value="- Type: enum" style="text;html=1;align=left;verticalAlign=middle;resizable=0;points=[];autosize=1;strokeColor=none;fontSize=14;" vertex="1" parent="51">
                    <mxGeometry x="10.526315789473685" y="30" width="100" height="20" as="geometry"/>
                </mxCell>
                <mxCell id="49" value="" style="rounded=0;whiteSpace=wrap;html=1;fontSize=14;align=left;" vertex="1" parent="51">
                    <mxGeometry y="160" width="200" height="30" as="geometry"/>
                </mxCell>
                <mxCell id="50" value="+ Update(): void" style="text;html=1;align=left;verticalAlign=middle;resizable=0;points=[];autosize=1;strokeColor=none;fontSize=14;" vertex="1" parent="51">
                    <mxGeometry x="10.526315789473685" y="165" width="120" height="20" as="geometry"/>
                </mxCell>
                <mxCell id="52" value="" style="group" vertex="1" connectable="0" parent="1">
                    <mxGeometry x="1291" y="190" width="200" height="190" as="geometry"/>
                </mxCell>
                <mxCell id="53" value="BuildingManager" style="swimlane;fontSize=14;" vertex="1" parent="52">
                    <mxGeometry width="200" height="140" as="geometry"/>
                </mxCell>
                <mxCell id="54" value="- Health: int" style="text;html=1;align=left;verticalAlign=middle;resizable=0;points=[];autosize=1;strokeColor=none;fontSize=14;" vertex="1" parent="53">
                    <mxGeometry x="10.526315789473683" y="50" width="90" height="20" as="geometry"/>
                </mxCell>
                <mxCell id="55" value="- MaxHealth: int" style="text;html=1;align=left;verticalAlign=middle;resizable=0;points=[];autosize=1;strokeColor=none;fontSize=14;" vertex="1" parent="53">
                    <mxGeometry x="10.526315789473683" y="70" width="110" height="20" as="geometry"/>
                </mxCell>
                <mxCell id="56" value="- Width: int" style="text;html=1;align=left;verticalAlign=middle;resizable=0;points=[];autosize=1;strokeColor=none;fontSize=14;" vertex="1" parent="53">
                    <mxGeometry x="10.526315789473683" y="90" width="80" height="20" as="geometry"/>
                </mxCell>
                <mxCell id="57" value="- Height: int" style="text;html=1;align=left;verticalAlign=middle;resizable=0;points=[];autosize=1;strokeColor=none;fontSize=14;" vertex="1" parent="53">
                    <mxGeometry x="10.526315789473683" y="110" width="90" height="20" as="geometry"/>
                </mxCell>
                <mxCell id="59" value="- Type: enum" style="text;html=1;align=left;verticalAlign=middle;resizable=0;points=[];autosize=1;strokeColor=none;fontSize=14;" vertex="1" parent="52">
                    <mxGeometry x="10.526315789473685" y="30" width="100" height="20" as="geometry"/>
                </mxCell>
                <mxCell id="60" value="" style="rounded=0;whiteSpace=wrap;html=1;fontSize=14;align=left;" vertex="1" parent="52">
                    <mxGeometry y="140" width="200" height="30" as="geometry"/>
                </mxCell>
                <mxCell id="61" value="+ Update(): void" style="text;html=1;align=left;verticalAlign=middle;resizable=0;points=[];autosize=1;strokeColor=none;fontSize=14;" vertex="1" parent="52">
                    <mxGeometry x="10.526315789473685" y="145" width="120" height="20" as="geometry"/>
                </mxCell>
                <mxCell id="64" style="edgeStyle=none;html=1;fontSize=14;endArrow=none;endFill=0;exitX=1;exitY=0.5;exitDx=0;exitDy=0;" edge="1" parent="1" source="62" target="11">
                    <mxGeometry relative="1" as="geometry">
                        <mxPoint x="720" y="345" as="targetPoint"/>
                        <mxPoint x="650" y="325" as="sourcePoint"/>
                    </mxGeometry>
                </mxCell>
                <mxCell id="62" value="&lt;b&gt;EventSystem&lt;/b&gt;" style="rounded=0;whiteSpace=wrap;html=1;fontSize=14;align=center;" vertex="1" parent="1">
                    <mxGeometry x="440.01" y="350" width="200" height="30" as="geometry"/>
                </mxCell>
                <mxCell id="63" value="" style="endArrow=none;html=1;fontSize=14;exitX=1;exitY=0.5;exitDx=0;exitDy=0;entryX=0.75;entryY=1;entryDx=0;entryDy=0;" edge="1" parent="1" source="25" target="66">
                    <mxGeometry width="50" height="50" relative="1" as="geometry">
                        <mxPoint x="620" y="430" as="sourcePoint"/>
                        <mxPoint x="740" y="420" as="targetPoint"/>
                    </mxGeometry>
                </mxCell>
                <mxCell id="65" value="1" style="text;html=1;strokeColor=none;fillColor=none;align=center;verticalAlign=middle;whiteSpace=wrap;rounded=0;fontSize=14;" vertex="1" parent="1">
                    <mxGeometry x="630" y="410" width="40" height="20" as="geometry"/>
                </mxCell>
                <mxCell id="66" value="1" style="text;html=1;strokeColor=none;fillColor=none;align=center;verticalAlign=middle;whiteSpace=wrap;rounded=0;fontSize=14;" vertex="1" parent="1">
                    <mxGeometry x="710" y="400" width="40" height="20" as="geometry"/>
                </mxCell>
                <mxCell id="67" value="1" style="text;html=1;strokeColor=none;fillColor=none;align=center;verticalAlign=middle;whiteSpace=wrap;rounded=0;fontSize=14;" vertex="1" parent="1">
                    <mxGeometry x="630" y="350" width="40" height="20" as="geometry"/>
                </mxCell>
                <mxCell id="68" value="1" style="text;html=1;strokeColor=none;fillColor=none;align=center;verticalAlign=middle;whiteSpace=wrap;rounded=0;fontSize=14;" vertex="1" parent="1">
                    <mxGeometry x="710" y="355" width="40" height="20" as="geometry"/>
                </mxCell>
                <mxCell id="69" style="edgeStyle=none;html=1;fontSize=14;endArrow=classic;endFill=1;entryX=0.5;entryY=1;entryDx=0;entryDy=0;" edge="1" parent="1" target="19">
                    <mxGeometry relative="1" as="geometry">
                        <mxPoint x="840" y="230" as="targetPoint"/>
                        <mxPoint x="860" y="310" as="sourcePoint"/>
                    </mxGeometry>
                </mxCell>
                <mxCell id="70" value="1..*" style="text;html=1;strokeColor=none;fillColor=none;align=center;verticalAlign=middle;whiteSpace=wrap;rounded=0;fontSize=14;" vertex="1" parent="1">
                    <mxGeometry x="870" y="290" width="40" height="20" as="geometry"/>
                </mxCell>
                <mxCell id="71" value="1" style="text;html=1;strokeColor=none;fillColor=none;align=center;verticalAlign=middle;whiteSpace=wrap;rounded=0;fontSize=14;" vertex="1" parent="1">
                    <mxGeometry x="890" y="250" width="40" height="20" as="geometry"/>
                </mxCell>
                <mxCell id="72" value="" style="endArrow=diamondThin;endFill=0;endSize=24;html=1;fontSize=14;entryX=0.75;entryY=1;entryDx=0;entryDy=0;exitX=0.25;exitY=0;exitDx=0;exitDy=0;" edge="1" parent="1" source="11" target="2">
                    <mxGeometry width="160" relative="1" as="geometry">
                        <mxPoint x="540" y="180" as="sourcePoint"/>
                        <mxPoint x="700" y="180" as="targetPoint"/>
                    </mxGeometry>
                </mxCell>
                <mxCell id="73" value="1" style="text;html=1;strokeColor=none;fillColor=none;align=center;verticalAlign=middle;whiteSpace=wrap;rounded=0;fontSize=14;" vertex="1" parent="1">
                    <mxGeometry x="720" y="250" width="40" height="20" as="geometry"/>
                </mxCell>
                <mxCell id="74" value="1..*" style="text;html=1;strokeColor=none;fillColor=none;align=center;verticalAlign=middle;whiteSpace=wrap;rounded=0;fontSize=14;" vertex="1" parent="1">
                    <mxGeometry x="780" y="285" width="40" height="20" as="geometry"/>
                </mxCell>
                <mxCell id="75" value="" style="endArrow=diamondThin;endFill=1;endSize=24;html=1;fontSize=14;exitX=0;exitY=0.5;exitDx=0;exitDy=0;entryX=1;entryY=0.25;entryDx=0;entryDy=0;" edge="1" parent="1" source="31" target="11">
                    <mxGeometry width="160" relative="1" as="geometry">
                        <mxPoint x="880" y="540" as="sourcePoint"/>
                        <mxPoint x="970" y="300" as="targetPoint"/>
                    </mxGeometry>
                </mxCell>
                <mxCell id="76" value="1..*" style="text;html=1;strokeColor=none;fillColor=none;align=center;verticalAlign=middle;whiteSpace=wrap;rounded=0;fontSize=14;" vertex="1" parent="1">
                    <mxGeometry x="935" y="313" width="40" height="20" as="geometry"/>
                </mxCell>
                <mxCell id="77" value="1..*" style="text;html=1;strokeColor=none;fillColor=none;align=center;verticalAlign=middle;whiteSpace=wrap;rounded=0;fontSize=14;" vertex="1" parent="1">
                    <mxGeometry x="980" y="265" width="40" height="20" as="geometry"/>
                </mxCell>
                <mxCell id="81" value="" style="endArrow=diamondThin;endFill=1;endSize=24;html=1;fontSize=14;exitX=0.5;exitY=0;exitDx=0;exitDy=0;entryX=1;entryY=0.75;entryDx=0;entryDy=0;" edge="1" parent="1" source="37" target="11">
                    <mxGeometry width="160" relative="1" as="geometry">
                        <mxPoint x="1051" y="330" as="sourcePoint"/>
                        <mxPoint x="950" y="355" as="targetPoint"/>
                    </mxGeometry>
                </mxCell>
                <mxCell id="82" value="1" style="text;html=1;strokeColor=none;fillColor=none;align=center;verticalAlign=middle;whiteSpace=wrap;rounded=0;fontSize=14;" vertex="1" parent="1">
                    <mxGeometry x="940" y="410" width="40" height="20" as="geometry"/>
                </mxCell>
                <mxCell id="83" value="0..*" style="text;html=1;strokeColor=none;fillColor=none;align=center;verticalAlign=middle;whiteSpace=wrap;rounded=0;fontSize=14;" vertex="1" parent="1">
                    <mxGeometry x="975" y="510" width="40" height="20" as="geometry"/>
                </mxCell>
                <mxCell id="37" value="Unit" style="swimlane;fontSize=14;" vertex="1" parent="1">
                    <mxGeometry x="880" y="530" width="200" height="80" as="geometry"/>
                </mxCell>
                <mxCell id="38" value="- Tag: String" style="text;html=1;align=left;verticalAlign=middle;resizable=0;points=[];autosize=1;strokeColor=none;fontSize=14;" vertex="1" parent="37">
                    <mxGeometry x="10.526315789473683" y="50" width="90" height="20" as="geometry"/>
                </mxCell>
                <mxCell id="39" value="- Name: String" style="text;html=1;align=left;verticalAlign=middle;resizable=0;points=[];autosize=1;strokeColor=none;fontSize=14;" vertex="1" parent="37">
                    <mxGeometry x="9.99631578947367" y="30" width="110" height="20" as="geometry"/>
                </mxCell>
                <mxCell id="85" value="" style="endArrow=diamondThin;endFill=0;endSize=24;html=1;fontSize=14;exitX=1;exitY=0.5;exitDx=0;exitDy=0;entryX=0;entryY=0.5;entryDx=0;entryDy=0;" edge="1" parent="1" source="42" target="37">
                    <mxGeometry width="160" relative="1" as="geometry">
                        <mxPoint x="900" y="630" as="sourcePoint"/>
                        <mxPoint x="860" y="540" as="targetPoint"/>
                    </mxGeometry>
                </mxCell>
                <mxCell id="86" value="1" style="text;html=1;strokeColor=none;fillColor=none;align=center;verticalAlign=middle;whiteSpace=wrap;rounded=0;fontSize=14;" vertex="1" parent="1">
                    <mxGeometry x="787" y="540" width="40" height="20" as="geometry"/>
                </mxCell>
                <mxCell id="87" value="1" style="text;html=1;strokeColor=none;fillColor=none;align=center;verticalAlign=middle;whiteSpace=wrap;rounded=0;fontSize=14;" vertex="1" parent="1">
                    <mxGeometry x="850" y="540" width="40" height="20" as="geometry"/>
                </mxCell>
                <mxCell id="89" value="" style="endArrow=diamondThin;endFill=0;endSize=24;html=1;fontSize=14;exitX=0;exitY=0.75;exitDx=0;exitDy=0;entryX=1;entryY=0.5;entryDx=0;entryDy=0;" edge="1" parent="1" source="53" target="31">
                    <mxGeometry width="160" relative="1" as="geometry">
                        <mxPoint x="1241" y="444" as="sourcePoint"/>
                        <mxPoint x="1321" y="464" as="targetPoint"/>
                    </mxGeometry>
                </mxCell>
                <mxCell id="90" value="1" style="text;html=1;strokeColor=none;fillColor=none;align=center;verticalAlign=middle;whiteSpace=wrap;rounded=0;fontSize=14;" vertex="1" parent="1">
                    <mxGeometry x="1210" y="290" width="40" height="20" as="geometry"/>
                </mxCell>
                <mxCell id="91" value="1" style="text;html=1;strokeColor=none;fillColor=none;align=center;verticalAlign=middle;whiteSpace=wrap;rounded=0;fontSize=14;" vertex="1" parent="1">
                    <mxGeometry x="1261" y="293" width="40" height="20" as="geometry"/>
                </mxCell>
                <mxCell id="95" value="HealthBarController" style="swimlane;fontSize=14;" vertex="1" parent="1">
                    <mxGeometry x="1160" y="545" width="200" height="60" as="geometry"/>
                </mxCell>
                <mxCell id="96" value="+ Update(): void" style="text;html=1;align=left;verticalAlign=middle;resizable=0;points=[];autosize=1;strokeColor=none;fontSize=14;" vertex="1" parent="95">
                    <mxGeometry x="9.99631578947367" y="30" width="120" height="20" as="geometry"/>
                </mxCell>
                <mxCell id="97" value="" style="endArrow=diamondThin;endFill=0;endSize=24;html=1;fontSize=14;exitX=0.5;exitY=0;exitDx=0;exitDy=0;entryX=0.75;entryY=1;entryDx=0;entryDy=0;" edge="1" parent="1" source="95" target="92">
                    <mxGeometry width="160" relative="1" as="geometry">
                        <mxPoint x="1330" y="305" as="sourcePoint"/>
                        <mxPoint x="1230" y="330" as="targetPoint"/>
                    </mxGeometry>
                </mxCell>
                <mxCell id="99" value="1" style="text;html=1;strokeColor=none;fillColor=none;align=center;verticalAlign=middle;whiteSpace=wrap;rounded=0;fontSize=14;" vertex="1" parent="1">
                    <mxGeometry x="1248" y="526" width="40" height="20" as="geometry"/>
                </mxCell>
                <mxCell id="100" value="" style="endArrow=diamondThin;endFill=0;endSize=24;html=1;fontSize=14;exitX=0.5;exitY=1;exitDx=0;exitDy=0;entryX=0.75;entryY=0;entryDx=0;entryDy=0;" edge="1" parent="1" source="92" target="37">
                    <mxGeometry width="160" relative="1" as="geometry">
                        <mxPoint x="1350" y="430" as="sourcePoint"/>
                        <mxPoint x="1251" y="430" as="targetPoint"/>
                    </mxGeometry>
                </mxCell>
                <mxCell id="102" value="1" style="text;html=1;strokeColor=none;fillColor=none;align=center;verticalAlign=middle;whiteSpace=wrap;rounded=0;fontSize=14;" vertex="1" parent="1">
                    <mxGeometry x="1050" y="510" width="40" height="20" as="geometry"/>
                </mxCell>
                <mxCell id="103" value="1" style="text;html=1;strokeColor=none;fillColor=none;align=center;verticalAlign=middle;whiteSpace=wrap;rounded=0;fontSize=14;" vertex="1" parent="1">
                    <mxGeometry x="1130" y="470" width="40" height="20" as="geometry"/>
                </mxCell>
                <mxCell id="115" value="&lt;b&gt;InGameUIManager&lt;/b&gt;" style="rounded=0;whiteSpace=wrap;html=1;fontSize=14;align=center;" vertex="1" parent="1">
                    <mxGeometry x="440.01" y="280" width="200" height="30" as="geometry"/>
                </mxCell>
                <mxCell id="116" value="" style="endArrow=diamondThin;endFill=0;endSize=24;html=1;fontSize=14;exitX=0;exitY=0.25;exitDx=0;exitDy=0;entryX=1;entryY=0.5;entryDx=0;entryDy=0;" edge="1" parent="1" source="11" target="115">
                    <mxGeometry width="160" relative="1" as="geometry">
                        <mxPoint x="1151" y="480" as="sourcePoint"/>
                        <mxPoint x="1040" y="540" as="targetPoint"/>
                    </mxGeometry>
                </mxCell>
                <mxCell id="117" value="1" style="text;html=1;strokeColor=none;fillColor=none;align=center;verticalAlign=middle;whiteSpace=wrap;rounded=0;fontSize=14;" vertex="1" parent="1">
                    <mxGeometry x="630" y="275" width="40" height="20" as="geometry"/>
                </mxCell>
                <mxCell id="118" value="1" style="text;html=1;strokeColor=none;fillColor=none;align=center;verticalAlign=middle;whiteSpace=wrap;rounded=0;fontSize=14;" vertex="1" parent="1">
                    <mxGeometry x="710" y="320" width="40" height="20" as="geometry"/>
                </mxCell>
            </root>
        </mxGraphModel>
    </diagram>
</mxfile>